<mxfile host="app.diagrams.net" modified="2022-04-24T15:12:04.468Z" agent="5.0 (Macintosh)" etag="xjFywMBJvr2Me6awJmKk" version="17.4.6" type="github">
  <diagram id="XqnaKPGImywsLeecfN6a" name="Page-1">
    <mxGraphModel dx="946" dy="547" grid="1" gridSize="10" guides="1" tooltips="1" connect="1" arrows="1" fold="1" page="1" pageScale="1" pageWidth="827" pageHeight="1169" math="0" shadow="0">
      <root>
        <mxCell id="0" />
        <mxCell id="1" parent="0" />
        <mxCell id="3Jk47x3_0CZ66x86huAH-1" value="predefined pair" style="rounded=1;whiteSpace=wrap;html=1;" vertex="1" parent="1">
          <mxGeometry x="310" y="220" width="120" height="60" as="geometry" />
        </mxCell>
        <mxCell id="3Jk47x3_0CZ66x86huAH-3" value="ontology" style="shape=process;whiteSpace=wrap;html=1;backgroundOutline=1;" vertex="1" parent="1">
          <mxGeometry x="310" y="100" width="120" height="60" as="geometry" />
        </mxCell>
        <mxCell id="3Jk47x3_0CZ66x86huAH-4" value="" style="endArrow=classic;html=1;rounded=0;exitX=0.5;exitY=1;exitDx=0;exitDy=0;entryX=0.5;entryY=0;entryDx=0;entryDy=0;" edge="1" parent="1" source="3Jk47x3_0CZ66x86huAH-3" target="3Jk47x3_0CZ66x86huAH-1">
          <mxGeometry width="50" height="50" relative="1" as="geometry">
            <mxPoint x="450" y="310" as="sourcePoint" />
            <mxPoint x="500" y="260" as="targetPoint" />
          </mxGeometry>
        </mxCell>
        <mxCell id="3Jk47x3_0CZ66x86huAH-5" value="" style="sketch=0;pointerEvents=1;shadow=0;dashed=0;html=1;strokeColor=none;labelPosition=center;verticalLabelPosition=bottom;verticalAlign=top;align=center;fillColor=#505050;shape=mxgraph.mscae.intune.update" vertex="1" parent="1">
          <mxGeometry x="200" y="220" width="48" height="50" as="geometry" />
        </mxCell>
        <mxCell id="3Jk47x3_0CZ66x86huAH-6" value="" style="endArrow=classic;html=1;rounded=0;exitX=0.5;exitY=0.03;exitDx=0;exitDy=0;exitPerimeter=0;entryX=0;entryY=0.5;entryDx=0;entryDy=0;" edge="1" parent="1" source="3Jk47x3_0CZ66x86huAH-5" target="3Jk47x3_0CZ66x86huAH-3">
          <mxGeometry width="50" height="50" relative="1" as="geometry">
            <mxPoint x="450" y="310" as="sourcePoint" />
            <mxPoint x="500" y="260" as="targetPoint" />
          </mxGeometry>
        </mxCell>
        <mxCell id="3Jk47x3_0CZ66x86huAH-7" value="loop relation" style="text;html=1;align=center;verticalAlign=middle;resizable=0;points=[];autosize=1;strokeColor=none;fillColor=none;" vertex="1" parent="1">
          <mxGeometry x="374" y="180" width="80" height="20" as="geometry" />
        </mxCell>
        <mxCell id="3Jk47x3_0CZ66x86huAH-8" value="relation-characteristic" style="swimlane;fontStyle=0;childLayout=stackLayout;horizontal=1;startSize=30;horizontalStack=0;resizeParent=1;resizeParentMax=0;resizeLast=0;collapsible=1;marginBottom=0;" vertex="1" parent="1">
          <mxGeometry x="480" y="160" width="140" height="120" as="geometry" />
        </mxCell>
        <mxCell id="3Jk47x3_0CZ66x86huAH-9" value="Item 1" style="text;strokeColor=none;fillColor=none;align=left;verticalAlign=middle;spacingLeft=4;spacingRight=4;overflow=hidden;points=[[0,0.5],[1,0.5]];portConstraint=eastwest;rotatable=0;" vertex="1" parent="3Jk47x3_0CZ66x86huAH-8">
          <mxGeometry y="30" width="140" height="30" as="geometry" />
        </mxCell>
        <mxCell id="3Jk47x3_0CZ66x86huAH-10" value="Item 2" style="text;strokeColor=none;fillColor=none;align=left;verticalAlign=middle;spacingLeft=4;spacingRight=4;overflow=hidden;points=[[0,0.5],[1,0.5]];portConstraint=eastwest;rotatable=0;" vertex="1" parent="3Jk47x3_0CZ66x86huAH-8">
          <mxGeometry y="60" width="140" height="30" as="geometry" />
        </mxCell>
        <mxCell id="3Jk47x3_0CZ66x86huAH-11" value="Item 3" style="text;strokeColor=none;fillColor=none;align=left;verticalAlign=middle;spacingLeft=4;spacingRight=4;overflow=hidden;points=[[0,0.5],[1,0.5]];portConstraint=eastwest;rotatable=0;" vertex="1" parent="3Jk47x3_0CZ66x86huAH-8">
          <mxGeometry y="90" width="140" height="30" as="geometry" />
        </mxCell>
      </root>
    </mxGraphModel>
  </diagram>
</mxfile>
